<svg xmlns="http://www.w3.org/2000/svg" viewBox="0 0 640 480" xmlns:c2pa="http://c2pa.org/manifest"><metadata><c2pa:manifest>AAAWgmp1bWIAAAAeanVtZGMycGEAEQAQgAAAqgA4m3EDYzJwYQAAABZcanVtYgAAAEdqdW1kYzJtYQARABCAAACqADibcQN1cm46YzJwYToyNDIxODlhMy01MWUwLTRiODAtOTczMi0wYjgyNjk4ZGNjZDYAAAADl2p1bWIAAAApanVtZGMyYXMAEQAQgAAAqgA4m3EDYzJwYS5hc3NlcnRpb25zAAAAALxqdW1iAAAARGp1bWRjYm9yABEAEIAAAKoAOJtxE2MycGEuaW5ncmVkaWVudC52MwAAAAAYYzJzaHImmeTIfkejHfdenQw/8BUAAABwY2JvcqNpZGM6Zm9ybWF0bWltYWdlL3N2Zyt4bWxqaW5zdGFuY2VJRHgseG1wOmlpZDpmZDZmM2E0NC0xNTM3LTQ4ZTYtOWI0YS0yOTAwNDMzYTljOTlscmVsYXRpb25zaGlwaHBhcmVudE9mAAAB4mp1bWIAAABBanVtZGNib3IAEQAQgAAAqgA4m3ETYzJwYS5hY3Rpb25zLnYyAAAAABhjMnNo5HxTq21ee+DO3lQ0UkzkXAAAAZljYm9yomdhY3Rpb25zgqJmYWN0aW9ua2MycGEub3BlbmVkanBhcmFtZXRlcnOha2luZ3JlZGllbnRzgaJjdXJseC1zZWxmI2p1bWJmPWMycGEuYXNzZXJ0aW9ucy9jMnBhLmluZ3JlZGllbnQudjNkaGFzaFggOvM//emvMRXGm+9r+5ohUfJkNKcSfKv9/dQHjk1C6kukZmFjdGlvbngdY29tLmFudGhyb3BpYy5jbGF1ZGUucHJvdmlkZWRqcGFyYW1ldGVyc6F4H2NvbS5hbnRocm9waWMub3JpZ2luLWNvbmZpZGVuY2VndW5rbm93bmtkZXNjcmlwdGlvbnhmQ2xhdWRlIHByb3ZpZGVkIHRoaXMgZmlsZSBhdCB0aGUgcmVxdWVzdCBvZiBhIHVzZXIgYW5kIG1heSBoYXZlIGNyZWF0ZWQgb3IgbW9kaWZpZWQgdGhlIGZpbGUgY29udGVudHMubXNvZnR3YXJlQWdlbnShZG5hbWVmQ2xhdWRlcmFsbEFjdGlvbnNJbmNsdWRlZPUAAADIanVtYgAAAEBqdW1kY2JvcgARABCAAACqADibcRNjMnBhLmhhc2guZGF0YQAAAAAYYzJzaNz3fYWjLfwM7qAVsU31OAEAAACAY2JvcqVjYWxnZnNoYTI1NmNwYWRNAAAAAAAAAAAAAAAAAGRoYXNoWCCfiX96wv6I0LBAooUKTVHlnAir6+uqvURQoc2q0PccUmRuYW1lbmp1bWJmIG1hbmlmZXN0amV4Y2x1c2lvbnOBomVzdGFydBh9Zmxlbmd0aBkeBAAAAj5qdW1iAAAAJ2p1bWRjMmNsABEAEIAAAKoAOJtxA2MycGEuY2xhaW0udjIAAAACD2Nib3KlY2FsZ2ZzaGEyNTZpc2lnbmF0dXJleE1zZWxmI2p1bWJmPS9jMnBhL3VybjpjMnBhOjI0MjE4OWEzLTUxZTAtNGI4MC05NzMyLTBiODI2OThkY2NkNi9jMnBhLnNpZ25hdHVyZWppbnN0YW5jZUlEeCx4bXA6aWlkOmMxMTM1YjUzLTQ2ODYtNGQ1Ni04ZmZhLWM4M2QyMzRlOGY0OHJjcmVhdGVkX2Fzc2VydGlvbnODomN1cmx4LXNlbGYjanVtYmY9YzJwYS5hc3NlcnRpb25zL2MycGEuaW5ncmVkaWVudC52M2RoYXNoWCA68z/96a8xFcab72v7miFR8mQ0pxJ8q/391AeOTULqS6JjdXJseCpzZWxmI2p1bWJmPWMycGEuYXNzZXJ0aW9ucy9jMnBhLmFjdGlvbnMudjJkaGFzaFggAVMVf2g4FiIsM3tXa+z2GybfJEvnZFKbFWBn4zScnraiY3VybHgpc2VsZiNqdW1iZj1jMnBhLmFzc2VydGlvbnMvYzJwYS5oYXNoLmRhdGFkaGFzaFggLsi2UZQXl0DvEjKj6sIoNrr18g1nZ1DeSLnu3XboPId0Y2xhaW1fZ2VuZXJhdG9yX2luZm+jZG5hbWVvQW50aHJvcGljIEZpbGVzZ3ZlcnNpb25lMS4wLjBrc3BlY1ZlcnNpb25lMi40LjAAABA4anVtYgAAAChqdW1kYzJjcwARABCAAACqADibcQNjMnBhLnNpZ25hdHVyZQAAABAIY2JvctKEWQISogEmGCFZAgowggIGMIIBjaADAgECAhRA5aAK7sI50L64g/oGQgU9Z1UTADAKBggqhkjOPQQDAzBJMRcwFQYDVQQKEw5BbnRocm9waWMsIFBCQzEuMCwGA1UEAxMlQW50aHJvcGljIENvbnRlbnQgQ3JlZGVudGlhbHMgUm9vdCBDQTAeFw0yNjA4MDcxODQzNTZaFw0yODA4MDYxOTQzNTZaMEQxFzAVBgNVBAoTDkFudGhyb3BpYywgUEJDMSkwJwYDVQQDEyBBbnRocm9waWMgQ2xhdWRlIENvbnRlbnQgU2lnbmluZzBZMBMGByqGSM49AgEGCCqGSM49AwEHA0IABJh6CmvLUBgFFNU0vUKlOVtE6djd17L5SuwX0LemFisBM3dkd/3cyjxFA3Qo5S46fX0/ihY0VZ7mfb9KF703t5OjWDBWMA4GA1UdDwEB/wQEAwIHgDAVBgNVHSUEDjAMBgorBgEEAYPoXgIBMAwGA1UdEwEB/wQCMAAwHwYDVR0jBBgwFoAUzlHiBIFOZFsj+OPEz5o+nMHXXMIwCgYIKoZIzj0EAwMDZwAwZAIwMXMdFJ4BetLLVY7ORuE9noqbbAZOZn/aArXyTwFAZfKrPzxF2vPoJNf1+UCdg1XGAjBwX1zd9WGqYkqmL5SFqw1QySjr1zJfpJM9+1rdDwSPLMOPOjKuiXjoU/pUUeG9RwmhY3BhZFkNngAAAAAAAAAAAAAAAAAAAAAAAAAAAAAAAAAAAAAAAAAAAAAAAAAAAAAAAAAAAAAAAAAAAAAAAAAAAAAAAAAAAAAAAAAAAAAAAAAAAAAAAAAAAAAAAAAAAAAAAAAAAAAAAAAAAAAAAAAAAAAAAAAAAAAAAAAAAAAAAAAAAAAAAAAAAAAAAAAAAAAAAAAAAAAAAAAAAAAAAAAAAAAAAAAAAAAAAAAAAAAAAAAAAAAAAAAAAAAAAAAAAAAAAAAAAAAAAAAAAAAAAAAAAAAAAAAAAAAAAAAAAAAAAAAAAAAAAAAAAAAAAAAAAAAAAAAAAAAAAAAAAAAAAAAAAAAAAAAAAAAAAAAAAAAAAAAAAAAAAAAAAAAAAAAAAAAAAAAAAAAAAAAAAAAAAAAAAAAAAAAAAAAAAAAAAAAAAAAAAAAAAAAAAAAAAAAAAAAAAAAAAAAAAAAAAAAAAAAAAAAAAAAAAAAAAAAAAAAAAAAAAAAAAAAAAAAAAAAAAAAAAAAAAAAAAAAAAAAAAAAAAAAAAAAAAAAAAAAAAAAAAAAAAAAAAAAAAAAAAAAAAAAAAAAAAAAAAAAAAAAAAAAAAAAAAAAAAAAAAAAAAAAAAAAAAAAAAAAAAAAAAAAAAAAAAAAAAAAAAAAAAAAAAAAAAAAAAAAAAAAAAAAAAAAAAAAAAAAAAAAAAAAAAAAAAAAAAAAAAAAAAAAAAAAAAAAAAAAAAAAAAAAAAAAAAAAAAAAAAAAAAAAAAAAAAAAAAAAAAAAAAAAAAAAAAAAAAAAAAAAAAAAAAAAAAAAAAAAAAAAAAAAAAAAAAAAAAAAAAAAAAAAAAAAAAAAAAAAAAAAAAAAAAAAAAAAAAAAAAAAAAAAAAAAAAAAAAAAAAAAAAAAAAAAAAAAAAAAAAAAAAAAAAAAAAAAAAAAAAAAAAAAAAAAAAAAAAAAAAAAAAAAAAAAAAAAAAAAAAAAAAAAAAAAAAAAAAAAAAAAAAAAAAAAAAAAAAAAAAAAAAAAAAAAAAAAAAAAAAAAAAAAAAAAAAAAAAAAAAAAAAAAAAAAAAAAAAAAAAAAAAAAAAAAAAAAAAAAAAAAAAAAAAAAAAAAAAAAAAAAAAAAAAAAAAAAAAAAAAAAAAAAAAAAAAAAAAAAAAAAAAAAAAAAAAAAAAAAAAAAAAAAAAAAAAAAAAAAAAAAAAAAAAAAAAAAAAAAAAAAAAAAAAAAAAAAAAAAAAAAAAAAAAAAAAAAAAAAAAAAAAAAAAAAAAAAAAAAAAAAAAAAAAAAAAAAAAAAAAAAAAAAAAAAAAAAAAAAAAAAAAAAAAAAAAAAAAAAAAAAAAAAAAAAAAAAAAAAAAAAAAAAAAAAAAAAAAAAAAAAAAAAAAAAAAAAAAAAAAAAAAAAAAAAAAAAAAAAAAAAAAAAAAAAAAAAAAAAAAAAAAAAAAAAAAAAAAAAAAAAAAAAAAAAAAAAAAAAAAAAAAAAAAAAAAAAAAAAAAAAAAAAAAAAAAAAAAAAAAAAAAAAAAAAAAAAAAAAAAAAAAAAAAAAAAAAAAAAAAAAAAAAAAAAAAAAAAAAAAAAAAAAAAAAAAAAAAAAAAAAAAAAAAAAAAAAAAAAAAAAAAAAAAAAAAAAAAAAAAAAAAAAAAAAAAAAAAAAAAAAAAAAAAAAAAAAAAAAAAAAAAAAAAAAAAAAAAAAAAAAAAAAAAAAAAAAAAAAAAAAAAAAAAAAAAAAAAAAAAAAAAAAAAAAAAAAAAAAAAAAAAAAAAAAAAAAAAAAAAAAAAAAAAAAAAAAAAAAAAAAAAAAAAAAAAAAAAAAAAAAAAAAAAAAAAAAAAAAAAAAAAAAAAAAAAAAAAAAAAAAAAAAAAAAAAAAAAAAAAAAAAAAAAAAAAAAAAAAAAAAAAAAAAAAAAAAAAAAAAAAAAAAAAAAAAAAAAAAAAAAAAAAAAAAAAAAAAAAAAAAAAAAAAAAAAAAAAAAAAAAAAAAAAAAAAAAAAAAAAAAAAAAAAAAAAAAAAAAAAAAAAAAAAAAAAAAAAAAAAAAAAAAAAAAAAAAAAAAAAAAAAAAAAAAAAAAAAAAAAAAAAAAAAAAAAAAAAAAAAAAAAAAAAAAAAAAAAAAAAAAAAAAAAAAAAAAAAAAAAAAAAAAAAAAAAAAAAAAAAAAAAAAAAAAAAAAAAAAAAAAAAAAAAAAAAAAAAAAAAAAAAAAAAAAAAAAAAAAAAAAAAAAAAAAAAAAAAAAAAAAAAAAAAAAAAAAAAAAAAAAAAAAAAAAAAAAAAAAAAAAAAAAAAAAAAAAAAAAAAAAAAAAAAAAAAAAAAAAAAAAAAAAAAAAAAAAAAAAAAAAAAAAAAAAAAAAAAAAAAAAAAAAAAAAAAAAAAAAAAAAAAAAAAAAAAAAAAAAAAAAAAAAAAAAAAAAAAAAAAAAAAAAAAAAAAAAAAAAAAAAAAAAAAAAAAAAAAAAAAAAAAAAAAAAAAAAAAAAAAAAAAAAAAAAAAAAAAAAAAAAAAAAAAAAAAAAAAAAAAAAAAAAAAAAAAAAAAAAAAAAAAAAAAAAAAAAAAAAAAAAAAAAAAAAAAAAAAAAAAAAAAAAAAAAAAAAAAAAAAAAAAAAAAAAAAAAAAAAAAAAAAAAAAAAAAAAAAAAAAAAAAAAAAAAAAAAAAAAAAAAAAAAAAAAAAAAAAAAAAAAAAAAAAAAAAAAAAAAAAAAAAAAAAAAAAAAAAAAAAAAAAAAAAAAAAAAAAAAAAAAAAAAAAAAAAAAAAAAAAAAAAAAAAAAAAAAAAAAAAAAAAAAAAAAAAAAAAAAAAAAAAAAAAAAAAAAAAAAAAAAAAAAAAAAAAAAAAAAAAAAAAAAAAAAAAAAAAAAAAAAAAAAAAAAAAAAAAAAAAAAAAAAAAAAAAAAAAAAAAAAAAAAAAAAAAAAAAAAAAAAAAAAAAAAAAAAAAAAAAAAAAAAAAAAAAAAAAAAAAAAAAAAAAAAAAAAAAAAAAAAAAAAAAAAAAAAAAAAAAAAAAAAAAAAAAAAAAAAAAAAAAAAAAAAAAAAAAAAAAAAAAAAAAAAAAAAAAAAAAAAAAAAAAAAAAAAAAAAAAAAAAAAAAAAAAAAAAAAAAAAAAAAAAAAAAAAAAAAAAAAAAAAAAAAAAAAAAAAAAAAAAAAAAAAAAAAAAAAAAAAAAAAAAAAAAAAAAAAAAAAAAAAAAAAAAAAAAAAAAAAAAAAAAAAAAAAAAAAAAAAAAAAAAAAAAAAAAAAAAAAAAAAAAAAAAAAAAAAAAAAAAAAAAAAAAAAAAAAAAAAAAAAAAAAAAAAAAAAAAAAAAAAAAAAAAAAAAAAAAAAAAAAAAAAAAAAAAAAAAAAAAAAAAAAAAAAAAAAAAAAAAAAAAAAAAAAAAAAAAAAAAAAAAAAAAAAAAAAAAAAAAAAAAAAAAAAAAAAAAAAAAAAAAAAAAAAAAAAAAAAAAAAAAAAAAAAAAAAAAAAAAAAAAAAAAAAAAAAAAAAAAAAAAAAAAAAAAAAAAAAAAAAAAAAAAAAAAAAAAAAAAAAAAAAAAAAAAAAAAAAAAAAAAAAAAAAAAAAAAAAAAAAAAAAAAAAAAAAAAAAAAAAAAAAAAAAAAAAAAAAAAAAAAAAAAAAAAAAAAAAAAAAAAAAAAAAAAAAAAAAAAAAAAAAAAAAAAAAAAAAAAAAAAAAAAAAAAAAAAAAAAAAAAAAAAAAAAAAAAAAAAAAAAAAAAAAAAAAAAAAAAAAAAAAAAAAAAAAAAAAAAAAAAAAAAAAAAAAAAAAAAAAAAAAAAAAAAAAAAAAAAAAAAAAAAAAAAAAAAAAAAAAAAAAAAAAAAAAAAAAAAAAAAAAAAAAAAAAAAAAAAAAAAAAAAAAAAAAAAAAAAAAAAAAAAAAAAAAAAAAAAAAAAAAAAAAAAAAAAAAAAAAAAAAAAAAAAAAAAAAAAAAAAAAAAAAAAAAAAAAAAAAAAAAAAAAAAAAAAAAAAAAAAAAAAAAAAAAAAAAAAAAAAAAAAAAAAAAAAAAAAAAAAAAAAAAAAAAAAAAAAAAAAAAAAAAAAAAAAAAAAAAAAAAAAAAAAAAAAAAAAAAAAAAAAAAAAAAAAAAAAAAAAAAAAAAAAAAAAAAAAAAAAAAAAAAAAAAAAAAAAAAAAAAAAAAAAAAAAAAAAAAAAAAAAAAAAAAAAAAAAAAAAAAAAAAAAAAAAAAAAAAAAAAAAAAAAAAAAAAAAAAAAAAAAAAAAAAAAAAAAAAAAAAAAAAAAAAAAAAAAAAAAAAAAAAAAAAAAAAAAAAAAAAAAAAAAAAAAAAAAAAAAAAAAAAAAAAAAAAAAAAAAAAAAAAAAAAAAAAAAAAAAAAAAAAAAAAAAAAAAAAAAAAAAAAAAAAAAAAAAAAAAAAAAAAAAAAAAAAAAAAAAAAAAAAAAAAAAAAAAAAAAAAAAAAAAAAAAAAAAAAAAAAAAAAAAAAAAAAAAAAAAAAAAAAAAAAAAAAAAAAAAAAAAAAAAAAAAAAAAAAAAAAAAAAAAAAAAAAAAAAAAAAAAAAAAAAAAAAAAAAAAAAAAAAAAAAAAAAAAAAAAAAAAAAAAAAAAAAAAAAAAAAAAAAAAAAAAAAAAAAAAAAAAAAAAAAAAAAAAAAAAAAAAAAAAAAAAAAAAAAAAAAAAAAAAAAAAAAAAAAAAAAAAAAAAAAAAAAAAAAAAPZYQDa7hNIXxpWEz9xb2e5RIix8OzBySzzCjXzUtrXNCnBvMD8yHndWDd+Q7XRP9ch87L0OVUK5zh6cgGq3K/ZNB2A=</c2pa:manifest></metadata>
<rect width="640" height="480" rx="16" fill="#f3f5fa"/>
<circle cx="80" cy="80" r="64" fill="#e4e7f5"/><circle cx="556" cy="404" r="68" fill="#fde3e4"/>
<rect x="130" y="60" width="390" height="262" rx="16" fill="#2b2d33"/>
<rect x="144" y="74" width="362" height="222" rx="8" fill="#fff"/>
<rect x="144" y="74" width="362" height="30" rx="8" fill="#3b3f94"/><rect x="144" y="90" width="362" height="14" fill="#3b3f94"/>
<circle cx="162" cy="89" r="4" fill="#e8313a"/><circle cx="176" cy="89" r="4" fill="#ffc93c"/><circle cx="190" cy="89" r="4" fill="#4cc38a"/>
<rect x="156" y="116" width="72" height="168" rx="6" fill="#f3f5fa"/>
<rect x="164" y="128" width="54" height="8" rx="4" fill="#3b3f94"/><rect x="164" y="146" width="44" height="8" rx="4" fill="#c6cbe0"/><rect x="164" y="162" width="50" height="8" rx="4" fill="#c6cbe0"/><rect x="164" y="178" width="38" height="8" rx="4" fill="#c6cbe0"/>
<rect x="242" y="118" width="120" height="8" rx="4" fill="#e8313a"/><rect x="242" y="136" width="200" height="8" rx="4" fill="#dde1ee"/><rect x="258" y="152" width="160" height="8" rx="4" fill="#dde1ee"/><rect x="258" y="168" width="180" height="8" rx="4" fill="#dde1ee"/><rect x="242" y="184" width="90" height="8" rx="4" fill="#0a6aae"/>
<rect x="244" y="252" width="26" height="32" rx="3" fill="#3b3f94"/><rect x="278" y="234" width="26" height="50" rx="3" fill="#e8313a"/><rect x="312" y="218" width="26" height="66" rx="3" fill="#0a6aae"/><rect x="346" y="242" width="26" height="42" rx="3" fill="#3b3f94"/><rect x="380" y="226" width="26" height="58" rx="3" fill="#e8313a"/>
<circle cx="456" cy="252" r="24" fill="none" stroke="#dde1ee" stroke-width="10"/><circle cx="456" cy="252" r="24" fill="none" stroke="#e8313a" stroke-width="10" stroke-dasharray="95 56" transform="rotate(-90 456 252)"/>
<rect x="302" y="322" width="46" height="46" fill="#3a3d45"/><rect x="250" y="366" width="150" height="12" rx="6" fill="#2b2d33"/>
<rect x="175" y="396" width="300" height="46" rx="10" fill="#dde1ee"/><rect x="183" y="406" width="13" height="8" rx="2" fill="#f3f5fa"/><rect x="199" y="406" width="13" height="8" rx="2" fill="#f3f5fa"/><rect x="215" y="406" width="13" height="8" rx="2" fill="#f3f5fa"/><rect x="231" y="406" width="13" height="8" rx="2" fill="#f3f5fa"/><rect x="247" y="406" width="13" height="8" rx="2" fill="#f3f5fa"/><rect x="263" y="406" width="13" height="8" rx="2" fill="#f3f5fa"/><rect x="279" y="406" width="13" height="8" rx="2" fill="#f3f5fa"/><rect x="295" y="406" width="13" height="8" rx="2" fill="#f3f5fa"/><rect x="311" y="406" width="13" height="8" rx="2" fill="#f3f5fa"/><rect x="327" y="406" width="13" height="8" rx="2" fill="#f3f5fa"/><rect x="343" y="406" width="13" height="8" rx="2" fill="#f3f5fa"/><rect x="359" y="406" width="13" height="8" rx="2" fill="#f3f5fa"/><rect x="375" y="406" width="13" height="8" rx="2" fill="#f3f5fa"/><rect x="391" y="406" width="13" height="8" rx="2" fill="#f3f5fa"/><rect x="190" y="418" width="14" height="8" rx="2" fill="#f3f5fa"/><rect x="207" y="418" width="14" height="8" rx="2" fill="#f3f5fa"/><rect x="224" y="418" width="14" height="8" rx="2" fill="#f3f5fa"/><rect x="241" y="418" width="14" height="8" rx="2" fill="#f3f5fa"/><rect x="258" y="418" width="14" height="8" rx="2" fill="#f3f5fa"/><rect x="275" y="418" width="14" height="8" rx="2" fill="#f3f5fa"/><rect x="292" y="418" width="14" height="8" rx="2" fill="#f3f5fa"/><rect x="309" y="418" width="14" height="8" rx="2" fill="#f3f5fa"/><rect x="326" y="418" width="14" height="8" rx="2" fill="#f3f5fa"/><rect x="343" y="418" width="14" height="8" rx="2" fill="#f3f5fa"/><rect x="360" y="418" width="14" height="8" rx="2" fill="#f3f5fa"/><rect x="377" y="418" width="14" height="8" rx="2" fill="#f3f5fa"/><rect x="394" y="418" width="14" height="8" rx="2" fill="#f3f5fa"/><rect x="215" y="430" width="19" height="8" rx="2" fill="#f3f5fa"/><rect x="238" y="430" width="19" height="8" rx="2" fill="#f3f5fa"/><rect x="261" y="430" width="19" height="8" rx="2" fill="#f3f5fa"/><rect x="284" y="430" width="19" height="8" rx="2" fill="#f3f5fa"/><rect x="307" y="430" width="19" height="8" rx="2" fill="#f3f5fa"/><rect x="330" y="430" width="19" height="8" rx="2" fill="#f3f5fa"/><rect x="353" y="430" width="19" height="8" rx="2" fill="#f3f5fa"/><rect x="376" y="430" width="19" height="8" rx="2" fill="#f3f5fa"/><rect x="399" y="430" width="19" height="8" rx="2" fill="#f3f5fa"/>
<rect x="500" y="396" width="30" height="46" rx="15" fill="#fff" stroke="#c6cbe0" stroke-width="2"/><path d="M515 396v18" stroke="#c6cbe0" stroke-width="2"/>
<rect x="28" y="176" width="124" height="86" rx="12" fill="#fff" stroke="#dde1ee"/><circle cx="58" cy="206" r="14" fill="#128c4a"/><path d="M51 206l5 5 10-11" fill="none" stroke="#fff" stroke-width="3" stroke-linecap="round" stroke-linejoin="round"/><rect x="80" y="200" width="56" height="8" rx="4" fill="#dde1ee"/><rect x="44" y="232" width="92" height="8" rx="4" fill="#dde1ee"/><rect x="44" y="246" width="62" height="8" rx="4" fill="#dde1ee"/>
<rect x="500" y="112" width="116" height="92" rx="12" fill="#fff" stroke="#dde1ee"/><rect x="514" y="128" width="88" height="10" rx="5" fill="#e8313a"/><rect x="514" y="148" width="70" height="8" rx="4" fill="#dde1ee"/><rect x="514" y="164" width="80" height="8" rx="4" fill="#dde1ee"/><rect x="514" y="180" width="50" height="8" rx="4" fill="#3b3f94"/>
</svg>